<svg preserveAspectRatio="none" width="100%" height="100%" overflow="visible" style="display: block;" viewBox="0 0 147 147" fill="none" xmlns="http://www.w3.org/2000/svg">
<g id="Contact Us/Section 3/ Card 4/Image">
<mask id="mask0_329_694" style="mask-type:alpha" maskUnits="userSpaceOnUse" x="0" y="0" width="147" height="147">
<rect id="Bounding box" width="146.12" height="146.12" fill="var(--fill-0, #2D2A26)"/>
</mask>
<g mask="url(#mask0_329_694)">
<path id="live_help" d="M72.4514 103.502C74.5823 103.502 76.3835 102.766 77.8548 101.295C79.3262 99.8234 80.0618 98.0222 80.0618 95.8913C80.0618 93.7604 79.3262 91.9593 77.8548 90.4879C76.3835 89.0166 74.5823 88.2809 72.4514 88.2809C70.3205 88.2809 68.5194 89.0166 67.048 90.4879C65.5767 91.9593 64.841 93.7604 64.841 95.8913C64.841 98.0222 65.5767 99.8234 67.048 101.295C68.5194 102.766 70.3205 103.502 72.4514 103.502ZM66.9719 80.0616H78.2353C78.2353 78.3366 78.3114 76.8653 78.4636 75.6476C78.6159 74.4299 78.9456 73.263 79.453 72.1468C79.9604 71.0306 80.5946 69.9905 81.3556 69.0265C82.1166 68.0626 83.2075 66.8703 84.6281 65.4496C88.1796 61.8981 90.691 58.9301 92.1624 56.5455C93.6337 54.1609 94.3694 51.4465 94.3694 48.4023C94.3694 43.0243 92.5429 38.6864 88.8899 35.3885C85.2369 32.0907 80.3155 30.4417 74.1257 30.4417C68.5447 30.4417 63.8009 31.8116 59.8942 34.5514C55.9876 37.2911 53.2732 41.0963 51.7511 45.967L61.7968 49.9244C62.5071 47.1847 63.9278 44.9776 66.0587 43.3033C68.1896 41.629 70.6757 40.7919 73.5169 40.7919C76.2566 40.7919 78.5397 41.5276 80.3662 42.9989C82.1927 44.4703 83.106 46.4236 83.106 48.8589C83.106 50.584 82.5479 52.4105 81.4317 54.3384C80.3155 56.2664 78.4383 58.3973 75.8 60.7312C74.075 62.1518 72.6797 63.547 71.6143 64.9169C70.5488 66.2868 69.6609 67.7328 68.9506 69.2549C68.2403 70.7769 67.733 72.3751 67.4285 74.0494C67.1241 75.7237 66.9719 77.7278 66.9719 80.0616ZM73.0603 140.032L54.7953 121.767H30.4419C27.0933 121.767 24.2268 120.574 21.8422 118.19C19.4576 115.805 18.2653 112.939 18.2653 109.59V24.3534C18.2653 21.0048 19.4576 18.1382 21.8422 15.7536C24.2268 13.369 27.0933 12.1767 30.4419 12.1767H115.679C119.027 12.1767 121.894 13.369 124.278 15.7536C126.663 18.1382 127.855 21.0048 127.855 24.3534V109.59C127.855 112.939 126.663 115.805 124.278 118.19C121.894 120.574 119.027 121.767 115.679 121.767H91.3252L73.0603 140.032ZM30.4419 109.59H59.6659L73.0603 122.984L86.4546 109.59H115.679V24.3534H30.4419V109.59Z" fill="var(--fill-0, #2D2A26)"/>
</g>
</g>
</svg>
