<svg preserveAspectRatio="none" width="100%" height="100%" overflow="visible" style="display: block;" viewBox="0 0 42 42" fill="none" xmlns="http://www.w3.org/2000/svg">
<g id="Contact Us/Section 2/Image 1">
<mask id="mask0_329_684" style="mask-type:alpha" maskUnits="userSpaceOnUse" x="0" y="0" width="42" height="42">
<rect id="Contact Us/Section 2/Image 1/Bounding box" width="42" height="42" fill="var(--fill-0, #D9D9D9)"/>
</mask>
<g mask="url(#mask0_329_684)">
<path id="Contact Us/Section 2/Image 1/Image" d="M21 1.75L36.8375 11.2C37.3625 11.5208 37.7708 11.9583 38.0625 12.5125C38.3542 13.0667 38.5 13.65 38.5 14.2625V33.25C38.5 34.2125 38.1573 35.0365 37.4719 35.7219C36.7865 36.4073 35.9625 36.75 35 36.75H7C6.0375 36.75 5.21354 36.4073 4.52813 35.7219C3.84271 35.0365 3.5 34.2125 3.5 33.25V14.2625C3.5 13.65 3.64583 13.0667 3.9375 12.5125C4.22917 11.9583 4.6375 11.5208 5.1625 11.2L21 1.75ZM21 22.1375L34.65 14L21 5.8625L7.35 14L21 22.1375ZM21 26.25L7 17.85V33.25H35V17.85L21 26.25Z" fill="var(--fill-0, #2D2A26)"/>
</g>
</g>
</svg>
