<svg preserveAspectRatio="none" width="100%" height="100%" overflow="visible" style="display: block;" viewBox="0 0 147 147" fill="none" xmlns="http://www.w3.org/2000/svg">
<g id="Contact Us/Section 3/ Card 3/Image">
<mask id="mask0_329_688" style="mask-type:alpha" maskUnits="userSpaceOnUse" x="0" y="0" width="147" height="147">
<rect id="Bounding box" width="146.12" height="146.12" fill="var(--fill-0, #2D2A26)"/>
</mask>
<g mask="url(#mask0_329_688)">
<path id="live_help" d="M72.4513 115.502C74.5822 115.502 76.3833 114.766 77.8547 113.295C79.326 111.823 80.0617 110.022 80.0617 107.891C80.0617 105.76 79.326 103.959 77.8547 102.488C76.3833 101.017 74.5822 100.281 72.4513 100.281C70.3204 100.281 68.5192 101.017 67.0479 102.488C65.5765 103.959 64.8409 105.76 64.8409 107.891C64.8409 110.022 65.5765 111.823 67.0479 113.295C68.5192 114.766 70.3204 115.502 72.4513 115.502ZM66.9718 92.0617H78.2352C78.2352 90.3366 78.3113 88.8653 78.4635 87.6476C78.6157 86.43 78.9455 85.263 79.4529 84.1468C79.9602 83.0306 80.5944 81.9905 81.3555 81.0266C82.1165 80.0626 83.2073 78.8703 84.628 77.4497C88.1795 73.8981 90.6909 70.9301 92.1623 68.5455C93.6336 66.1609 94.3693 63.4465 94.3693 60.4023C94.3693 55.0243 92.5428 50.6864 88.8898 47.3885C85.2368 44.0907 80.3154 42.4418 74.1256 42.4418C68.5446 42.4418 63.8008 43.8116 59.8941 46.5514C55.9874 49.2911 53.273 53.0963 51.751 57.967L61.7967 61.9244C62.507 59.1847 63.9276 56.9776 66.0585 55.3034C68.1895 53.6291 70.6755 52.7919 73.5167 52.7919C76.2565 52.7919 78.5396 53.5276 80.3661 54.9989C82.1926 56.4703 83.1059 58.4236 83.1059 60.859C83.1059 62.584 82.5478 64.4105 81.4316 66.3385C80.3154 68.2664 78.4381 70.3973 75.7999 72.7312C74.0748 74.1518 72.6796 75.5471 71.6141 76.9169C70.5487 78.2868 69.6608 79.7328 68.9505 81.2549C68.2402 82.777 67.7328 84.3751 67.4284 86.0494C67.124 87.7237 66.9718 89.7278 66.9718 92.0617ZM73.0601 152.032L54.7951 133.767H30.4418C27.0932 133.767 24.2266 132.574 21.842 130.19C19.4574 127.805 18.2651 124.939 18.2651 121.59V36.3534C18.2651 33.0048 19.4574 30.1383 21.842 27.7537C24.2266 25.3691 27.0932 24.1768 30.4418 24.1768H115.678C119.027 24.1768 121.894 25.3691 124.278 27.7537C126.663 30.1383 127.855 33.0048 127.855 36.3534V121.59C127.855 124.939 126.663 127.805 124.278 130.19C121.894 132.574 119.027 133.767 115.678 133.767H91.3251L73.0601 152.032ZM30.4418 121.59H59.6658L73.0601 134.984L86.4545 121.59H115.678V36.3534H30.4418V121.59Z" fill="var(--fill-0, #2D2A26)"/>
</g>
</g>
</svg>
